<?xml version="1.0" encoding="UTF-8"?>
<svg id="Layer_1" data-name="Layer 1" xmlns="http://www.w3.org/2000/svg" viewBox="0 0 283.46 170.08">
  <defs>
    <style>
      .cls-1 {
        fill: #009292;
        stroke-width: 0px;
      }
    </style>
  </defs>
  <g>
    <path class="cls-1" d="m49.23,23.55v91.53h-15.01V23.55h15.01Z"/>
    <path class="cls-1" d="m119.42,115.08l-35.43-40.96v40.96h-15.01V23.55h15.01v41.75l35.56-41.75h18.83l-39.77,45.83,40.43,45.7h-19.62Z"/>
    <path class="cls-1" d="m213.85,75.83c3.42,4.3,5.14,9.18,5.14,14.62,0,4.65-1.21,8.85-3.62,12.58-2.42,3.73-5.91,6.67-10.47,8.82-4.57,2.15-9.88,3.23-15.94,3.23h-36.61V23.55h34.9c6.23,0,11.59,1.05,16.07,3.16,4.48,2.11,7.86,4.94,10.14,8.49,2.28,3.56,3.42,7.53,3.42,11.92,0,5.27-1.4,9.66-4.21,13.17-2.81,3.51-6.58,6.1-11.33,7.77,4.92.88,9.09,3.47,12.51,7.77Zm-46.49-13.83h18.57c4.92,0,8.76-1.12,11.52-3.36,2.77-2.24,4.15-5.47,4.15-9.68s-1.38-7.35-4.15-9.68c-2.77-2.33-6.61-3.49-11.52-3.49h-18.57v26.21Zm32.26,37.14c2.9-2.46,4.35-5.88,4.35-10.27s-1.54-8.03-4.61-10.67c-3.07-2.63-7.16-3.95-12.25-3.95h-19.75v28.58h20.28c5.09,0,9.09-1.23,11.98-3.69Z"/>
  </g>
  <g>
    <path class="cls-1" d="m33.99,127.71c-.31-.31-.47-.7-.47-1.15s.16-.84.47-1.14.68-.45,1.12-.45.81.15,1.12.45.47.68.47,1.14-.16.84-.47,1.15-.68.47-1.12.47-.81-.16-1.12-.47Zm2.21,3.67v17h-2.18v-17h2.18Z"/>
    <path class="cls-1" d="m58.22,132.95c1.29,1.26,1.93,3.08,1.93,5.46v9.96h-2.15v-9.71c0-1.85-.46-3.26-1.39-4.23-.92-.97-2.18-1.46-3.78-1.46s-2.95.52-3.92,1.56c-.97,1.04-1.46,2.56-1.46,4.58v9.28h-2.18v-17h2.18v2.9c.54-1.04,1.32-1.83,2.33-2.38,1.02-.55,2.17-.83,3.46-.83,2.03,0,3.69.63,4.98,1.88Z"/>
    <path class="cls-1" d="m82.04,132.95c1.29,1.26,1.93,3.08,1.93,5.46v9.96h-2.15v-9.71c0-1.85-.46-3.26-1.39-4.23-.92-.97-2.18-1.46-3.78-1.46s-2.95.52-3.92,1.56c-.97,1.04-1.46,2.56-1.46,4.58v9.28h-2.18v-17h2.18v2.9c.54-1.04,1.32-1.83,2.33-2.38,1.02-.55,2.17-.83,3.46-.83,2.03,0,3.69.63,4.98,1.88Z"/>
    <path class="cls-1" d="m96.05,147.55c-1.28-.72-2.28-1.73-3.02-3.05-.74-1.32-1.1-2.86-1.1-4.62s.37-3.3,1.12-4.62c.75-1.32,1.76-2.33,3.05-3.05,1.29-.72,2.73-1.07,4.33-1.07s3.05.36,4.34,1.07c1.3.72,2.31,1.73,3.05,3.05.74,1.32,1.11,2.86,1.11,4.62s-.37,3.28-1.12,4.61c-.75,1.33-1.77,2.35-3.08,3.07-1.31.72-2.76,1.07-4.36,1.07s-3.03-.36-4.31-1.07Zm7.43-1.59c.95-.51,1.73-1.28,2.32-2.3s.89-2.29.89-3.78-.29-2.76-.87-3.78-1.35-1.79-2.3-2.3c-.96-.51-1.99-.76-3.11-.76s-2.16.25-3.11.76c-.95.51-1.72,1.28-2.29,2.3-.57,1.03-.86,2.29-.86,3.78s.29,2.76.86,3.78c.57,1.03,1.33,1.8,2.27,2.3.94.51,1.98.76,3.1.76s2.16-.25,3.11-.76Z"/>
    <path class="cls-1" d="m123.07,146.26l5.73-14.88h2.3l-6.82,17h-2.46l-6.82-17h2.33l5.73,14.88Z"/>
    <path class="cls-1" d="m138.22,135.26c.7-1.32,1.66-2.33,2.9-3.05,1.23-.72,2.63-1.07,4.19-1.07s3.01.37,4.19,1.12c1.17.75,2.02,1.7,2.54,2.87v-3.74h2.18v17h-2.18v-3.77c-.54,1.16-1.4,2.12-2.57,2.88-1.17.76-2.57,1.14-4.19,1.14-1.54,0-2.92-.36-4.16-1.09s-2.2-1.75-2.9-3.08c-.7-1.33-1.04-2.86-1.04-4.61s.35-3.27,1.04-4.59Zm12.97,1.01c-.56-1.04-1.32-1.84-2.29-2.4-.97-.56-2.03-.84-3.19-.84s-2.28.27-3.24.81c-.96.54-1.71,1.32-2.26,2.35-.55,1.03-.83,2.25-.83,3.66s.27,2.61.83,3.66c.55,1.05,1.3,1.85,2.26,2.4.95.55,2.03.83,3.24.83s2.23-.28,3.19-.84c.97-.56,1.73-1.36,2.29-2.4.56-1.04.84-2.24.84-3.61s-.28-2.57-.84-3.61Z"/>
    <path class="cls-1" d="m166.14,133.22v10.55c0,1.04.2,1.75.59,2.15.39.39,1.09.59,2.09.59h1.99v1.87h-2.33c-1.54,0-2.68-.36-3.42-1.07-.75-.72-1.12-1.89-1.12-3.53v-10.55h-2.37v-1.84h2.37v-4.26h2.21v4.26h4.67v1.84h-4.67Z"/>
    <path class="cls-1" d="m178.48,127.71c-.31-.31-.47-.7-.47-1.15s.16-.84.47-1.14.68-.45,1.12-.45.81.15,1.12.45.47.68.47,1.14-.16.84-.47,1.15-.68.47-1.12.47-.81-.16-1.12-.47Zm2.21,3.67v17h-2.18v-17h2.18Z"/>
    <path class="cls-1" d="m192.88,147.55c-1.28-.72-2.28-1.73-3.02-3.05-.74-1.32-1.11-2.86-1.11-4.62s.37-3.3,1.12-4.62c.75-1.32,1.76-2.33,3.05-3.05,1.29-.72,2.73-1.07,4.33-1.07s3.05.36,4.34,1.07c1.3.72,2.31,1.73,3.05,3.05.74,1.32,1.1,2.86,1.1,4.62s-.37,3.28-1.12,4.61c-.75,1.33-1.77,2.35-3.08,3.07-1.31.72-2.76,1.07-4.36,1.07s-3.03-.36-4.31-1.07Zm7.43-1.59c.95-.51,1.73-1.28,2.32-2.3s.89-2.29.89-3.78-.29-2.76-.87-3.78c-.58-1.03-1.35-1.79-2.3-2.3-.96-.51-1.99-.76-3.11-.76s-2.16.25-3.11.76c-.96.51-1.72,1.28-2.29,2.3-.57,1.03-.86,2.29-.86,3.78s.29,2.76.86,3.78c.57,1.03,1.33,1.8,2.27,2.3s1.98.76,3.1.76,2.16-.25,3.11-.76Z"/>
    <path class="cls-1" d="m226.81,132.95c1.29,1.26,1.93,3.08,1.93,5.46v9.96h-2.15v-9.71c0-1.85-.46-3.26-1.38-4.23-.92-.97-2.18-1.46-3.78-1.46s-2.95.52-3.92,1.56c-.98,1.04-1.46,2.56-1.46,4.58v9.28h-2.18v-17h2.18v2.9c.54-1.04,1.32-1.83,2.34-2.38,1.02-.55,2.17-.83,3.46-.83,2.03,0,3.69.63,4.98,1.88Z"/>
    <path class="cls-1" d="m238.76,147.27c-1.23-.9-1.92-2.13-2.07-3.69h2.24c.1.96.55,1.73,1.35,2.32s1.87.89,3.22.89c1.18,0,2.11-.28,2.79-.84.67-.56,1.01-1.26,1.01-2.09,0-.58-.19-1.06-.56-1.43-.37-.37-.85-.67-1.42-.89-.57-.22-1.34-.45-2.32-.7-1.27-.33-2.29-.66-3.08-1-.79-.33-1.46-.83-2.01-1.48-.55-.65-.83-1.53-.83-2.63,0-.83.25-1.6.75-2.3s1.2-1.27,2.12-1.68c.91-.41,1.95-.62,3.11-.62,1.83,0,3.3.46,4.42,1.39,1.12.92,1.72,2.19,1.81,3.81h-2.18c-.06-1-.45-1.8-1.17-2.41s-1.7-.92-2.94-.92c-1.1,0-1.99.26-2.68.78s-1.03,1.16-1.03,1.93c0,.66.2,1.21.61,1.63s.91.76,1.51,1c.6.24,1.41.5,2.43.79,1.22.33,2.2.65,2.93.97s1.35.77,1.87,1.37c.52.6.79,1.4.81,2.4,0,.91-.25,1.73-.75,2.44s-1.19,1.28-2.09,1.7c-.89.41-1.92.62-3.08.62-1.95,0-3.54-.45-4.78-1.35Z"/>
  </g>
  <path class="cls-1" d="m238.59,23.55c-6,0-10.86,4.86-10.86,10.86s4.86,10.86,10.86,10.86,10.86-4.86,10.86-10.86-4.86-10.86-10.86-10.86Zm0,16.42c-3.07,0-5.55-2.49-5.55-5.55s2.49-5.55,5.55-5.55,5.55,2.49,5.55,5.55-2.49,5.55-5.55,5.55Z"/>
  <path class="cls-1" d="m238.59,58.45c-6,0-10.86,4.86-10.86,10.86s4.86,10.86,10.86,10.86,10.86-4.86,10.86-10.86-4.86-10.86-10.86-10.86Zm0,16.42c-3.07,0-5.55-2.49-5.55-5.55s2.49-5.55,5.55-5.55,5.55,2.49,5.55,5.55-2.49,5.55-5.55,5.55Z"/>
  <path class="cls-1" d="m238.59,93.35c-6,0-10.86,4.86-10.86,10.86s4.86,10.86,10.86,10.86,10.86-4.86,10.86-10.86-4.86-10.86-10.86-10.86Zm0,16.42c-3.07,0-5.55-2.49-5.55-5.55s2.49-5.55,5.55-5.55,5.55,2.49,5.55,5.55-2.49,5.55-5.55,5.55Z"/>
</svg>